<svg width="32" height="31" viewBox="0 0 32 31" fill="none" xmlns="http://www.w3.org/2000/svg">
<path d="M13.9 30.2759L0.7 17.1259C0.466667 16.9259 0.291667 16.6843 0.175 16.4009C0.0583335 16.1176 0 15.8093 0 15.4759C0 15.1759 0.0583335 14.8926 0.175 14.6259C0.291667 14.3593 0.466667 14.1259 0.7 13.9259L13.95 0.625926C14.3833 0.192593 14.9167 -0.0157407 15.55 0.000925926C16.1833 0.0175926 16.7167 0.259259 17.15 0.725925C17.55 1.15926 17.7583 1.69259 17.775 2.32593C17.7917 2.95926 17.5833 3.49259 17.15 3.92593L7.85 13.2259H29.7C30.3333 13.2259 30.8667 13.4426 31.3 13.8759C31.7333 14.3093 31.95 14.8426 31.95 15.4759C31.95 16.1759 31.7333 16.7343 31.3 17.1509C30.8667 17.5676 30.3333 17.7759 29.7 17.7759H7.85L17.2 27.1259C17.6333 27.5926 17.8417 28.1343 17.825 28.7509C17.8083 29.3676 17.5833 29.8759 17.15 30.2759C16.6833 30.7426 16.1333 30.9759 15.5 30.9759C14.8667 30.9759 14.3333 30.7426 13.9 30.2759Z" fill="white"/>
</svg>
