<svg xmlns="http://www.w3.org/2000/svg" width="209" height="247" fill="none"><path fill="#fff" d="M207.136 244.992H1.346s3.335-33.525 16.03-60.297c4.638-9.764 6.184-24.086 15.379-30.352 9.44-6.428 29.538-11.554 36.536-12.368 3.906-.488 3.011-.814 5.778-1.546.895 2.441 9.927 26.364 31.572 35.153 18.635 7.567 29.701 2.522 31.41-5.859 1.058-5.371-2.278-14.159-3.987-17.007-.977-.814-1.628-2.034-1.953-3.255l-.651-2.685c1.465-.326 2.848-.733 4.313-1.139.732.162 1.546.081 2.197.488 6.835 3.743 27.422 9.032 38.163 20.343 4.232 4.394 10.823 20.018 11.881 30.189 3.011 27.911 19.122 48.335 19.122 48.335Z"/><path fill="#000" d="M208.276 245.481c-61.029.162-146.715.895-206.849.651-.732 0-1.302-.651-1.22-1.384.732-5.777 1.708-11.392 2.848-17.088 3.01-15.542 7.567-30.84 14.402-45.08 2.767-6.673 4.15-13.671 7.487-20.181 1.953-3.906 4.882-7.649 8.788-9.846 6.266-3.743 13.182-6.103 20.099-8.219 4.15-1.22 8.381-2.359 12.613-3.173 2.115-.488 4.231-.407 6.184-1.221 1.058-.407 3.092-1.627 3.743-.081 5.94 15.379 17.414 29.945 33.444 35.397 8.3 3.011 22.703 5.533 26.935-4.638 1.302-3.825.081-7.975-1.058-11.799-.651-1.953-1.465-3.987-2.441-5.615l.244.244c-1.465-1.22-2.279-3.173-2.523-4.964l-.407-1.627a1.214 1.214 0 0 1 .895-1.465c1.465-.244 2.93-.732 4.395-1.139.813 0 2.115.163 3.173.732 8.951 4.15 19.123 7.161 27.667 12.369 4.801 2.848 9.683 6.184 12.775 10.985 5.696 9.521 9.358 20.344 10.416 31.329 2.278 15.705 8.625 30.759 17.739 43.697l.326.407.162.162.082.082s0-.082.081.163c.081.488.081 1.057 0 1.302Zm-2.197-1.058c-.163.244-.163.813 0 1.058l.081.081-.081-.081-.163-.245-.325-.406c-5.127-7.812-9.358-16.194-12.45-24.9-2.441-6.429-4.232-13.101-5.208-19.937-.326-2.441-.732-5.696-1.302-8.056-1.872-7.811-4.882-15.623-9.195-22.377-1.383-2.197-3.418-3.906-5.452-5.533-6.428-4.883-13.996-7.894-21.482-10.823l-7.649-2.848c-2.523-.976-5.534-2.034-7.08-3.58h.651a44.163 44.163 0 0 1-4.394 1.22l.895-1.464.407 1.627c.325 1.465.651 2.767 1.79 3.743l.244.244c2.197 3.987 3.499 8.137 4.15 12.613 1.384 7.73-3.499 13.833-10.985 15.298-10.334 2.034-22.703-2.441-31.247-8.219-10.741-7.567-18.472-18.797-23.191-30.921l1.465.732c-.733.244-1.221.488-1.954.814-.732.407-1.627.651-2.44.814l.162.976c-1.546.163-2.767.244-4.231.57-4.15.651-8.3 1.627-12.369 2.766-5.452 1.465-10.822 3.255-15.868 5.615-2.522 1.221-4.963 2.523-6.835 4.231-1.953 1.709-3.499 3.988-4.8 6.429-3.825 7.405-5.697 16.274-9.603 23.761-8.137 18.146-12.694 37.919-14.891 57.693l-1.22-1.302c59.076-.244 144.517.081 204.57.407Z"/><path fill="#000" d="M141.062 191.774c-2.848.814-12.775-9.521-14.81-11.311-1.871 2.116-15.054 17.007-21.563 16.031-7.161-1.058-25.47-13.346-34.746-32.631-5.127-10.578-5.29-17.007-4.72-20.506.244-1.627.732-2.685.976-3.255.814-1.871 6.673-9.113 8.138-9.032v.081c.732 7.812 3.254 15.38 7.486 21.971 5.208 8.056 13.426 17.739 24.9 22.377 18.634 7.568 28.318.082 29.945-8.3 1.058-5.37-.814-11.717-2.523-14.565-.976-.814-1.627-2.035-1.952-3.255l-.651-2.685c1.464-.326 2.848-.733 4.312-1.14.407-.162.895-.244 1.302-.407.244.326.57.651.814.977 3.418 3.906 6.998 9.276 8.951 18.39 3.255 14.566-2.685 26.283-5.859 27.26Z"/><path stroke="#000" stroke-linecap="round" stroke-linejoin="round" stroke-miterlimit="10" stroke-width="3" d="M126.008 179.976s5.94 3.417 5.778 6.265c-.163 2.848 1.546 11.881 1.546 11.881"/><path fill="#000" d="M125.927 190.797a1.952 1.952 0 1 0 .001-3.905 1.952 1.952 0 0 0-.001 3.905ZM126.578 198.447a1.953 1.953 0 1 0 .001-3.905 1.953 1.953 0 0 0-.001 3.905Z"/><path stroke="#544D4D" stroke-linecap="round" stroke-linejoin="round" stroke-miterlimit="10" stroke-width="3" d="m41.625 244.992-3.662-30.189M183.783 204.55s-2.441 5.94-1.709 11.88c.732 5.94 2.848 14.647-.163 28.562"/><path fill="#000" d="M74.337 131.07s26.283-8.137 62.901 13.996c0 0 10.09 27.179 3.824 31.329-6.265 4.15-25.958 4.557-39.71 0-13.833-4.476-31.572-26.853-27.015-45.325Z"/><path fill="#fff" d="M136.911 167.852c-1.709 8.382-12.775 13.427-31.41 5.859-19.366-7.812-27.748-26.446-29.863-31.979 11.473-21.483 3.499-36.374 3.499-36.374 26.446-2.278 49.556 28.643 49.556 28.643l3.58 15.298c.325 1.302.976 2.441 1.953 3.255 1.709 3.011 3.743 9.928 2.685 15.298Z"/><path fill="#000" d="M75.231 141.976c1.546-2.36 2.523-5.127 3.174-7.812 1.22-5.615 1.627-11.311 1.709-17.007v-2.116c-.245-2.115-.977-4.312-1.79-6.265-1.058-2.604 2.766-4.232 3.987-1.628.162.326.162.895.162 1.221.245 11.067.733 25.307-6.265 34.502-.489.488-1.465-.244-.977-.895ZM129.588 133.839c1.22.732 1.627 1.708 1.79 2.685.488 1.953.325 4.068.814 6.103.407 1.953 1.627 3.824 1.953 5.859.407 2.115 1.627 6.591 2.115 8.788.163.488-.162 1.058-.732 1.139-.326.081-.57 0-.814-.163-1.058-.895-1.546-1.79-2.197-2.929-1.058-1.953-1.79-3.743-2.441-5.94-.57-1.953-.325-4.069-.814-6.103-.407-1.953-1.546-3.825-1.953-5.859-.244-.977-.325-2.034.407-3.255.488-.488 1.302-.651 1.872-.325Z"/><path fill="#000" d="M135.447 155.32c-15.542-.813-28.236-5.696-40.605-27.748 10.416 9.196 22.703 12.695 35.641 14.322l1.709 7.486c.325 1.302 2.278 5.127 3.255 5.94Z"/><path fill="#000" d="M134.796 152.31c2.767 5.208 4.394 11.717 2.685 17.495-1.301 4.068-5.045 7.079-9.113 8.218-9.439 2.523-20.343-1.464-28.725-5.94-10.334-5.777-17.983-15.461-22.865-26.039-.326-.814.813-1.465 1.301-.651 1.71 3.418 3.662 6.754 5.86 9.765a49.812 49.812 0 0 0 7.567 8.462c8.3 7.487 19.529 12.125 30.759 12.125 11.555-.326 15.949-6.428 13.264-17.658-.407-1.79-1.058-3.662-1.953-5.208-.489-.651.732-1.383 1.22-.569Z"/><path fill="#fff" d="M166.287 54.58c1.465 6.836 2.197 12.37-1.79 30.597-3.906 18.146 5.614 21.889-16.926 50.939-9.195 11.88-31.491 8.544-49.556-3.743-6.103-4.15-8.707-14.81-13.264-22.378-3.58-5.94-5.207.245-9.927-4.882-6.428-6.998-14.159-21.075-10.334-45.975 6.184-40.361 38.163-45.08 61.843-40.605 23.842 4.557 36.048 18.064 39.954 36.048Z"/><path fill="#000" d="M78.893 112.356c-1.872-3.174-4.313-5.941-6.592-8.87-2.197-3.011-3.987-6.347-5.451-9.765-9.684-23.76-5.94-57.205 17.82-71.2 9.846-5.697 21.727-7.08 32.793-6.185 23.68 1.709 45.406 12.613 50.533 37.675 2.766 11.067-.977 22.46-3.093 33.282-.976 5.37-.162 10.904-.244 16.437-.081 5.615-1.627 11.23-3.743 16.437-1.302 3.581-3.58 6.754-5.94 9.684-3.906 4.719-7.812 9.52-12.776 13.182-1.139.814-3.173 1.221-4.556 1.383-3.825.57-7.568.733-11.393.489-14.972-.651-31.002-7.894-37.024-22.378-.244-.569.57-.976.895-.488 7.812 12.369 22.133 18.471 36.374 19.285 4.394.244 8.869.163 13.182-.732 2.116-1.058 3.987-2.93 5.777-4.638 4.394-4.394 8.87-9.114 12.043-14.485 3.825-7.242 5.941-15.135 5.29-23.354-.163-3.661-.244-7.486.488-11.148.651-3.661 1.465-7.16 1.953-10.904.488-3.58.732-7.242.732-10.822-.407-10.497-3.824-21.32-10.497-29.457-14.728-18.309-49.556-23.11-69.166-10.578-12.37 7.649-18.147 21.97-20.018 35.885-2.848 16.681-2.034 33.119 11.23 45.243l3.905 4.069c1.546 1.79-1.22 3.906-2.522 1.953Z"/><path fill="#fff" d="M88.494 86.478s-2.522-12.206-14.403-10.74c-10.253 1.301-13.833 25.876 9.44 32.711"/><path fill="#000" d="M82.473 97.79c-1.872-1.059-3.174-2.849-3.255-5.046.081-1.627.325-3.499-.081-5.126-.245-1.546-1.872-1.953-3.093-1.872-1.301.244-2.115 1.872-2.36 3.174 0 .081-.08.325-.08.406-.082.407-.733.407-.896 0-1.058-3.173 1.302-6.672 4.72-6.265 4.8.325 5.452 5.37 4.557 9.195-.489 1.627.162 3.092 1.058 4.475l.162.245c.407.488-.244 1.139-.732.813ZM147.571 77.853c1.22 5.777 3.499 11.148 6.347 16.193 2.522 6.184-3.987 12.043-9.765 11.799-.651 0-.732-.895-.163-1.058 3.662-1.139 6.998-3.58 7.568-7.323.244-1.14-.081-2.116-.651-3.092-2.685-5.046-4.313-10.823-3.906-16.52 0-.406.57-.406.57 0Z"/><path fill="#000" d="M88.088 86.56c-1.872-4.801-5.94-9.358-11.393-9.277-.488-.081-1.301.082-1.79.082-1.383.081-2.522.57-3.58 1.546-5.208 5.208-4.313 14.403-.082 20.18 1.465 2.035 3.337 3.825 5.452 5.289 2.116 1.465 4.476 2.604 6.999 3.581.57.163.325 1.058-.245.976-5.452-1.139-10.66-3.824-14.24-8.3-5.533-6.672-6.672-17.82-.081-24.33 1.465-1.302 3.499-2.279 5.533-2.279.651 0 1.628-.162 2.278 0 3.418.163 6.673 1.872 8.789 4.557 1.871 2.279 2.93 5.045 3.255 7.812 0 .488-.733.651-.895.163Z"/><path stroke="#000" stroke-width="6" d="M130 144c.185 3.077.846 4.615 1.154 5l1.846 5m1-2c.308 1.846 1.41 2.769 1.923 3l3.077 3"/><path fill="#000" d="M172.878 42.13c5.534-4.8 13.671-12.043 5.29-22.133-8.382-10.09-23.842-6.184-23.842-6.184s3.254-9.277-5.778-12.613c-10.904-3.987-41.825 8.056-41.825 8.056-2.279-.082-4.476-.163-6.51-.163-26.69-.57-34.42 16.274-34.746 31.41 0 0-9.033 3.01-11.311 17.413-.732 4.639-1.465 10.579.325 17.74 4.801 19.53 17.74 33.118 25.958 40.035 3.092-2.278-2.36-5.452-1.953-9.195-17.658-8.625-13.833-29.538-4.394-30.759 7.242-.895 11.067 3.336 12.857 6.754.732.977-9.032-53.462 47.277-35.641 11.149 3.499 22.622 6.591 30.434.976.895 1.71 1.465 3.743 1.627 6.754 0 0 13.59-5.289 11.555-10.822-.651-1.872-4.964-1.628-4.964-1.628ZM141.387 113.982c-5.208 4.964-15.054.977-17.658-5.045-.325-.732.489-1.383 1.14-1.058 1.383.733 2.604 1.465 3.906 2.035 3.743 1.709 7.649 3.092 11.799 2.685.813-.163 1.383.814.813 1.383Z"/><path fill="#000" d="M117.22 86.153c-1.953-.081-3.418-1.709-3.255-3.662l.081-2.278c.082-1.953 1.709-3.418 3.662-3.255 1.953.081 3.418 1.709 3.255 3.662l-.081 2.278c-.082 1.872-1.709 3.336-3.662 3.255ZM151.477 87.374c-1.79-.082-3.173-1.628-3.092-3.418l.082-2.116c.081-1.79 1.627-3.173 3.417-3.092 1.79.081 3.174 1.628 3.092 3.418l-.081 2.115c-.081 1.79-1.627 3.174-3.418 3.093Z"/><path fill="#000" d="M124.543 81.759c-2.685-1.79-5.614-3.01-8.869-2.36-1.058.163-2.116.488-2.767 1.22-.244.326-.814.245-.814-.243.082-1.628 1.465-2.686 2.767-3.337 2.523-1.302 6.022-1.058 8.3.651.814.489 3.58 3.5 2.116 4.15-.326.163-.489.082-.733-.081ZM147.816 82.166c0-3.418 4.231-4.638 6.835-3.418 1.465.651 2.523 1.953 2.93 3.5.162.487-.57.894-.896.487-1.383-1.627-3.743-2.44-5.614-1.464-.57.325-.651.57-.814.895 0 1.627-2.36 1.546-2.441 0ZM128.449 68.332c1.709.57 3.418-.976 3.092-2.848-.162-.976-.569-1.953-1.383-2.685-2.441-2.197-12.531-4.15-18.634-1.302-5.371 2.604 9.113 4.231 16.925 6.835ZM152.78 69.634c-1.383.489-2.848-.976-2.604-2.685.081-.895.407-1.79 1.058-2.441 1.953-1.953 8.625-3.5 12.857-.488 3.661 2.522-4.964 3.255-11.311 5.614Z"/></svg>