<svg width="126" height="126" viewBox="0 0 126 126" fill="none" xmlns="http://www.w3.org/2000/svg">
<path d="M118.129 34.5361C142.924 82.2894 99.3377 136.17 47.3769 123.017C24.0517 117.216 5.30174 96.9953 1.42102 73.2616C-2.99074 49.6505 7.67102 24.2829 27.6057 10.925C54.9341 -7.86583 92.8017 -1.61583 112.369 25.2633C112.491 25.3858 112.45 25.5901 112.287 25.7126C112.164 25.8352 111.96 25.7943 111.838 25.6309C109.142 22.1587 106.078 19.0133 102.728 16.1946C97.2135 11.4969 90.7593 7.82044 83.9374 5.32861C49.2151 -7.25309 11.1024 13.6619 3.50436 49.9773C-5.07407 90.6636 29.5256 128.123 70.7838 122.526C102.606 118.523 126.258 89.1521 123.643 57.2077C123.071 49.4871 121.029 41.8482 117.638 34.8221C117.557 34.6995 117.638 34.5361 117.761 34.4544C117.883 34.3727 118.047 34.4136 118.129 34.5361Z" fill="black"/>
<mask id="mask0_203_206" style="mask-type:alpha" maskUnits="userSpaceOnUse" x="4" y="4" width="120" height="120">
<circle cx="64.0035" cy="63.8033" r="59.8033" fill="#D9D9D9"/>
</mask>
<g mask="url(#mask0_203_206)">
<path d="M96.5883 113.177C96.3138 113.373 96.0001 113.569 95.7256 113.765C95.4119 113.961 95.1374 114.157 94.8236 114.314C94.5491 114.471 94.3138 114.628 94.0393 114.784C94.0001 114.824 93.9609 114.824 93.9217 114.863C93.0197 115.412 92.0785 115.922 91.1374 116.392C90.8628 116.549 90.5491 116.706 90.2746 116.824C90.2746 116.824 90.2354 116.863 90.1962 116.863C89.8825 117.02 89.5687 117.177 89.255 117.333C88.6276 117.647 87.9609 117.922 87.3334 118.196C87.0197 118.353 86.6668 118.471 86.353 118.588C86.0393 118.706 85.6864 118.863 85.3727 118.98C85.0589 119.098 84.706 119.255 84.3923 119.373C84.3923 119.373 84.3923 119.373 84.353 119.373C84.0393 119.49 83.6864 119.608 83.3727 119.726C82.6668 119.961 81.9217 120.196 81.2158 120.431C80.9805 120.51 80.706 120.588 80.4707 120.667C79.7256 120.902 78.9805 121.098 78.2354 121.255C77.9609 121.333 77.6864 121.373 77.3727 121.451C76.6668 121.608 75.9217 121.765 75.2158 121.922C75.0589 121.961 74.9413 121.961 74.7844 122C74.5491 122.039 74.2746 122.079 74.0393 122.118C73.6864 122.157 73.3727 122.235 73.0197 122.275C72.8628 122.314 72.706 122.314 72.5491 122.353C72.353 122.392 72.1178 122.431 71.8825 122.431C71.255 122.51 70.5883 122.588 69.9609 122.667C69.7648 122.706 69.5295 122.706 69.3334 122.745H69.2942C69.0197 122.784 68.7452 122.784 68.4707 122.824C68.1962 122.863 67.9217 122.863 67.6472 122.863C67.4903 122.863 67.2942 122.902 67.1374 122.902C66.8236 122.902 66.5491 122.941 66.2746 122.941C65.8825 122.941 65.5295 122.98 65.1374 122.98C64.7452 122.98 64.3923 122.98 64.0001 122.98C63.7256 122.98 63.4511 122.98 63.1766 122.98C46.6276 122.745 31.7648 115.726 21.1374 104.588C21.1374 104.588 21.1374 104.549 21.0981 104.549C19.9217 103.49 20.9413 97.8432 25.6864 94.2746C31.6472 89.7648 45.9217 86.9413 45.9217 86.9413C45.9217 86.9413 51.4511 86.0393 71.9609 90.3138C83.9609 92.8236 93.0981 96.4707 98.1962 106.353C99.255 108.392 100.314 111.529 96.5883 113.177Z" fill="white"/>
<path d="M72.0786 89.8825C79.608 91.412 87.6472 93.059 93.8433 98.0394C95.9217 99.7257 97.2943 102.196 98.4315 104.588C98.9805 105.765 99.5296 106.981 99.9609 108.275C100.196 109.137 100.549 110.118 100.353 111.137C100.314 111.412 100.079 111.765 99.8825 111.961C98.9805 112.863 98.0002 113.412 97.0198 114.118C91.2551 118.118 84.6276 120.941 77.7649 122.432C62.4707 125.765 45.9217 123.177 32.4707 115.137C28.0002 112.432 23.8825 109.137 20.3531 105.255C19.9609 104.785 19.9609 104 19.9609 103.49C20.0002 102.314 20.3139 101.177 20.706 100.118C21.6472 97.6865 22.8629 95.2551 24.9413 93.5688C26.4315 92.5492 28.0394 91.6865 29.6864 90.9806C34.8629 88.7845 40.3139 87.2551 45.9217 86.6276C46.3923 86.5884 46.4707 87.2551 46.0002 87.3335C40.6276 88.4316 35.2943 90.0786 30.3139 92.3139C28.51 93.2159 26.5884 94.0002 25.1374 95.412C23.7649 96.9022 22.7845 98.7453 22.0002 100.628C21.4903 101.765 21.1374 103.569 21.2943 104.471C23.7649 107.412 26.6668 110 29.8041 112.235C46.9805 124.235 73.059 125.02 91.3335 115.02C92.9805 114.118 94.5884 113.098 96.1178 112.039C96.8629 111.53 97.6472 111.098 98.2355 110.51C98.2747 110.471 98.2355 110.51 98.2355 110.549C98.2355 110.588 98.1962 110.628 98.1962 110.628C98.2354 110.157 98.0786 109.53 97.8825 108.902C97.1766 106.628 96.0394 104.235 94.8237 102.157C92.9021 99.059 89.6472 97.0982 86.3531 95.5296C84.0786 94.4708 81.6864 93.6473 79.2551 92.8629C76.8237 92.0786 74.3531 91.412 71.8825 90.8237C71.2551 90.6669 71.4511 89.7649 72.0786 89.8825Z" fill="black"/>
<path d="M109.608 137.49H10.4316C10.4316 137.49 12.0395 121.333 18.1571 108.431C20.3924 103.725 21.1375 96.8231 25.5689 93.8035C30.1179 90.7055 39.8042 88.2349 43.1767 87.8428C45.0591 87.6075 44.6277 87.4506 45.9611 87.0977C46.3924 88.2741 50.7454 99.8035 61.1767 104.039C70.1571 107.686 75.4905 105.255 76.314 101.215C76.8238 98.6271 75.216 94.3918 74.3924 93.0192C73.9218 92.6271 73.6081 92.0388 73.4513 91.4506L73.1375 90.1565C73.8434 89.9996 74.5101 89.8035 75.216 89.6075C75.5689 89.6859 75.9611 89.6467 76.2748 89.8428C79.5689 91.6467 89.4905 94.1957 94.6669 99.6467C96.7062 101.764 99.8826 109.294 100.392 114.196C101.843 127.647 109.608 137.49 109.608 137.49Z" fill="white"/>
<path d="M110.157 137.725C80.7454 137.804 39.4513 138.157 10.4709 138.039C10.1179 138.039 9.84343 137.725 9.88264 137.372C10.2356 134.588 10.7062 131.882 11.2552 129.137C12.7062 121.647 14.9023 114.274 18.1964 107.412C19.5297 104.196 20.1964 100.823 21.8042 97.6862C22.7454 95.8038 24.1572 93.9999 26.0395 92.9411C29.0591 91.1372 32.3924 89.9999 35.7258 88.9803C37.7258 88.3921 39.765 87.843 41.8042 87.4509C42.8238 87.2156 43.8434 87.2548 44.7846 86.8627C45.2944 86.6666 46.2748 86.0783 46.5885 86.8234C49.4513 94.2352 54.9807 101.255 62.7062 103.882C66.7062 105.333 73.6473 106.549 75.6866 101.647C76.314 99.8038 75.7258 97.8038 75.1768 95.9607C74.863 95.0195 74.4709 94.0391 74.0003 93.2548L74.1179 93.3725C73.4121 92.7842 73.0199 91.843 72.9022 90.9803L72.7062 90.196C72.6277 89.8823 72.8238 89.5685 73.1375 89.4901C73.8434 89.3725 74.5493 89.1372 75.2552 88.9411C75.6473 88.9411 76.2748 89.0195 76.7846 89.294C81.0983 91.294 86.0003 92.745 90.1179 95.2548C92.4317 96.6274 94.7846 98.2352 96.2748 100.549C99.0199 105.137 100.785 110.353 101.294 115.647C102.392 123.216 105.451 130.47 109.843 136.706L110 136.902L110.079 136.98L110.118 137.02C110.118 137.02 110.118 136.98 110.157 137.098C110.196 137.333 110.196 137.608 110.157 137.725ZM109.098 137.216C109.02 137.333 109.02 137.608 109.098 137.725C109.177 137.804 109.138 137.765 109.138 137.765L109.098 137.725L109.02 137.608L108.863 137.412C106.392 133.647 104.353 129.608 102.863 125.412C101.687 122.314 100.824 119.098 100.353 115.804C100.196 114.627 100 113.059 99.7258 111.921C98.8238 108.157 97.3728 104.392 95.2944 101.137C94.6277 100.078 93.6473 99.2548 92.667 98.4705C89.5689 96.1175 85.9219 94.6666 82.314 93.2548L78.6277 91.8823C77.4121 91.4117 75.9611 90.9019 75.216 90.1568H75.5297C74.8238 90.3921 74.1179 90.5881 73.4121 90.745L73.8434 90.0391L74.0395 90.8234C74.1964 91.5293 74.3532 92.1568 74.9023 92.6274C74.9415 92.6666 74.9807 92.7058 75.0199 92.745C76.0787 94.6666 76.7062 96.6666 77.0199 98.8234C77.6866 102.549 75.3336 105.49 71.7258 106.196C66.7454 107.176 60.7846 105.02 56.667 102.235C51.4905 98.5881 47.765 93.1764 45.4905 87.3332L46.1964 87.6862C45.8434 87.8038 45.6081 87.9215 45.2552 88.0783C44.9023 88.2744 44.4709 88.3921 44.0787 88.4705C44.1179 88.7058 44.0003 87.9999 44.1572 88.9411C43.4121 89.0195 42.8238 89.0587 42.1179 89.2156C40.1179 89.5293 38.1179 89.9999 36.1572 90.5489C33.5297 91.2548 30.9415 92.1176 28.5101 93.2548C27.2944 93.843 26.1179 94.4705 25.216 95.294C24.2748 96.1176 23.5297 97.2156 22.9023 98.3921C21.0591 101.961 20.1572 106.235 18.2748 109.843C14.3532 118.588 12.1572 128.118 11.0983 137.647L10.5101 137.02C38.9807 136.902 80.1571 137.059 109.098 137.216Z" fill="black"/>
<path d="M77.7651 111.843C76.3925 112.235 71.6082 107.255 70.6278 106.392C69.7258 107.412 63.3729 114.588 60.2356 114.118C56.7847 113.608 47.9611 107.686 43.4905 98.3921C41.0199 93.2941 40.9415 90.1961 41.216 88.5098C41.3337 87.7255 41.569 87.2157 41.6866 86.9412C42.0788 86.0392 44.9023 82.549 45.6082 82.5882V82.6274C45.9611 86.3921 47.1768 90.0392 49.216 93.2157C51.7258 97.098 55.6866 101.765 61.216 104C70.1964 107.647 74.8631 104.039 75.6474 100C76.1572 97.4118 75.2552 94.3529 74.4317 92.9804C73.9611 92.5882 73.6474 92 73.4905 91.4117L73.1768 90.1176C73.8827 89.9608 74.5494 89.7647 75.2552 89.5686C75.4513 89.4902 75.6866 89.451 75.8827 89.3725C76.0003 89.5294 76.1572 89.6863 76.2749 89.8431C77.9219 91.7255 79.6474 94.3137 80.5886 98.7059C82.1572 105.725 79.2945 111.373 77.7651 111.843Z" fill="black"/>
<path d="M70.5103 106.157C70.5103 106.157 73.373 107.804 73.2946 109.177C73.2161 110.549 74.0397 114.902 74.0397 114.902" stroke="black" stroke-width="3" stroke-miterlimit="10" stroke-linecap="round" stroke-linejoin="round"/>
<path d="M70.471 111.373C70.9908 111.373 71.4121 110.951 71.4121 110.431C71.4121 109.912 70.9908 109.49 70.471 109.49C69.9512 109.49 69.5298 109.912 69.5298 110.431C69.5298 110.951 69.9512 111.373 70.471 111.373Z" fill="black"/>
<path d="M70.7844 115.059C71.3042 115.059 71.7256 114.638 71.7256 114.118C71.7256 113.598 71.3042 113.177 70.7844 113.177C70.2646 113.177 69.8433 113.598 69.8433 114.118C69.8433 114.638 70.2646 115.059 70.7844 115.059Z" fill="black"/>
<path d="M45.6078 82.5884C45.6078 82.5884 58.2745 78.6668 75.9216 89.3335C75.9216 89.3335 80.7843 102.432 77.7647 104.432C74.7451 106.432 65.2549 106.628 58.6274 104.432C51.9608 102.275 43.4118 91.4903 45.6078 82.5884Z" fill="black"/>
<path d="M75.7648 100.314C74.9412 104.353 69.6079 106.785 60.6275 103.138C51.2942 99.373 47.255 90.3926 46.2354 87.7259C51.7648 77.373 47.9216 70.1965 47.9216 70.1965C60.6667 69.0985 71.804 84.0004 71.804 84.0004L73.5295 91.373C73.6863 92.0004 74.0001 92.5494 74.4706 92.9416C75.2942 94.3926 76.2746 97.7259 75.7648 100.314Z" fill="white"/>
<path d="M46.0392 87.8433C46.7843 86.7061 47.2549 85.3728 47.5686 84.0786C48.1569 81.3728 48.353 78.6277 48.3922 75.8826V74.8629C48.2745 73.8433 47.9216 72.7845 47.5294 71.8433C47.0196 70.5884 48.8628 69.8041 49.451 71.059C49.5294 71.2159 49.5294 71.4904 49.5294 71.6473C49.6471 76.9806 49.8824 83.8433 46.5098 88.2747C46.2745 88.51 45.8039 88.1571 46.0392 87.8433Z" fill="black"/>
<path d="M72.2353 83.9219C72.8235 84.2749 73.0196 84.7455 73.098 85.2161C73.3333 86.1572 73.2549 87.1768 73.4902 88.1572C73.6863 89.0984 74.2745 90.0004 74.4314 90.9808C74.6274 92.0004 75.2157 94.1572 75.451 95.2161C75.5294 95.4513 75.3725 95.7259 75.098 95.7651C74.9412 95.8043 74.8235 95.7651 74.7059 95.6866C74.1961 95.2553 73.9608 94.8239 73.6471 94.2749C73.1372 93.3337 72.7843 92.471 72.4706 91.4121C72.1961 90.471 72.3137 89.4513 72.0784 88.471C71.8823 87.5298 71.3333 86.6278 71.1372 85.6474C71.0196 85.1768 70.9804 84.667 71.3333 84.0788C71.5686 83.8435 71.9608 83.7651 72.2353 83.9219Z" fill="black"/>
<path d="M75.0589 94.2749C67.5687 93.8827 61.451 91.5298 55.4902 80.9023C60.5098 85.3337 66.4314 87.02 72.6667 87.8043L73.4902 91.4121C73.6471 92.0396 74.5883 93.8827 75.0589 94.2749Z" fill="black"/>
<path d="M74.7454 92.8241C76.0787 95.3339 76.863 98.4712 76.0395 101.255C75.412 103.216 73.6081 104.667 71.6473 105.216C67.0983 106.432 61.8434 104.51 57.8042 102.354C52.8238 99.5692 49.1375 94.9025 46.7846 89.8045C46.6277 89.4123 47.1767 89.0986 47.412 89.4908C48.2356 91.1378 49.1767 92.7457 50.2356 94.1966C51.2944 95.6868 52.5101 97.0594 53.8826 98.2751C57.8826 101.883 63.2944 104.118 68.7061 104.118C74.2748 103.961 76.3924 101.02 75.0983 95.6084C74.9022 94.7457 74.5885 93.8437 74.1571 93.0986C73.9218 92.7849 74.5101 92.4319 74.7454 92.8241Z" fill="black"/>
<path d="M89.9218 45.7256C90.6277 49.0197 90.9806 51.6863 89.059 60.4707C87.1767 69.2158 91.7649 71.0197 80.9022 85.0197C76.4708 90.7452 65.7257 89.1373 57.0198 83.2158C54.0787 81.2158 52.8238 76.0785 50.6277 72.4314C48.9022 69.5687 48.1179 72.5491 45.8434 70.0785C42.7453 66.706 39.0198 59.9216 40.863 47.9216C43.8434 28.4707 59.2551 26.1961 70.6669 28.353C82.1571 30.5491 88.0394 37.0589 89.9218 45.7256Z" fill="white"/>
<path d="M47.804 73.5688C46.902 72.0394 45.7256 70.7061 44.6275 69.2943C43.5687 67.8434 42.7059 66.2355 42.0001 64.5884C37.3334 53.1375 39.1373 37.0198 50.5883 30.2747C55.3334 27.5296 61.0589 26.863 66.3922 27.2943C77.804 28.1179 88.2746 33.3728 90.7452 45.4512C92.0785 50.7845 90.2746 56.2747 89.255 61.4904C88.7844 64.0786 89.1765 66.7453 89.1373 69.412C89.0981 72.1179 88.353 74.8237 87.3334 77.3335C86.7059 79.059 85.6079 80.5884 84.4707 82.0002C82.5883 84.2747 80.7059 86.5884 78.3138 88.3532C77.7648 88.7453 76.7844 88.9414 76.1177 89.0198C74.2746 89.2943 72.4706 89.3728 70.6275 89.2551C63.4118 88.9414 55.6863 85.4512 52.7844 78.4708C52.6667 78.1963 53.0589 78.0002 53.2158 78.2355C56.9805 84.1963 63.8824 87.1375 70.7452 87.5296C72.8628 87.6473 75.0197 87.6081 77.0981 87.1767C78.1177 86.6669 79.0197 85.7649 79.8824 84.9414C82.0001 82.8237 84.1569 80.5492 85.6863 77.961C87.5295 74.4708 88.5491 70.6669 88.2354 66.7061C88.1569 64.9414 88.1177 63.0983 88.4706 61.3335C88.7844 59.5688 89.1765 57.8826 89.4118 56.0786C89.6471 54.3532 89.7648 52.5884 89.7648 50.863C89.5687 45.8041 87.9216 40.5885 84.7059 36.6669C77.6079 27.8434 60.8236 25.5296 51.3726 31.5688C45.4118 35.2551 42.6275 42.1571 41.7256 48.863C40.353 56.9022 40.7452 64.8237 47.1373 70.6669L49.0197 72.6277C49.7648 73.4904 48.4314 74.51 47.804 73.5688Z" fill="black"/>
<path d="M52.4313 61.0981C52.4313 61.0981 51.2156 55.2157 45.4901 55.9216C40.5489 56.549 38.8234 68.3922 50.0391 71.6863" fill="white"/>
<path d="M49.5295 66.5492C48.6275 66.0394 48.0001 65.1767 47.9609 64.1178C48.0001 63.3335 48.1177 62.4316 47.9217 61.6472C47.804 60.9021 47.0197 60.7061 46.4315 60.7453C45.804 60.8629 45.4119 61.6472 45.2942 62.2747C45.2942 62.3139 45.255 62.4316 45.255 62.4708C45.2158 62.6669 44.9021 62.6669 44.8236 62.4708C44.3138 60.9414 45.4511 59.2551 47.0981 59.4512C49.4119 59.608 49.7256 62.0394 49.2942 63.8825C49.0589 64.6669 49.3726 65.3727 49.804 66.0394L49.8824 66.1571C50.0785 66.3923 49.7648 66.7061 49.5295 66.5492Z" fill="black"/>
<path d="M80.9017 56.9415C81.49 59.7258 82.588 62.314 83.9606 64.7454C85.1763 67.7258 82.039 70.5493 79.2547 70.4317C78.941 70.4317 78.9017 70.0003 79.1763 69.9219C80.941 69.3729 82.5488 68.1964 82.8233 66.3925C82.941 65.8435 82.7841 65.3729 82.5096 64.9023C81.2155 62.4709 80.4312 59.6866 80.6272 56.9415C80.6272 56.7454 80.9017 56.7454 80.9017 56.9415Z" fill="black"/>
<path d="M52.2352 61.1375C51.3333 58.8238 49.3725 56.6277 46.7451 56.667C46.5098 56.6277 46.1176 56.7062 45.8823 56.7062C45.2156 56.7454 44.6666 56.9807 44.1568 57.4513C41.647 59.9611 42.0784 64.3925 44.1176 67.1768C44.8235 68.1572 45.7254 69.0199 46.7451 69.7258C47.7647 70.4317 48.9019 70.9807 50.1176 71.4513C50.3921 71.5297 50.2745 71.9611 50 71.9219C47.3725 71.3728 44.8627 70.0787 43.1372 67.9219C40.4705 64.7062 39.9215 59.3336 43.098 56.1964C43.8039 55.5689 44.7843 55.0983 45.7647 55.0983C46.0784 55.0983 46.549 55.0199 46.8627 55.0983C48.5098 55.1768 50.0784 56.0003 51.098 57.2944C52 58.3924 52.5098 59.7258 52.6666 61.0591C52.6666 61.2944 52.3137 61.3728 52.2352 61.1375Z" fill="black"/>
<path d="M77.9215 74.3528C75.4117 76.7449 70.6666 74.8234 69.4117 71.9214C69.2548 71.5685 69.647 71.2547 69.9607 71.4116C70.6274 71.7645 71.2156 72.1175 71.8431 72.392C73.647 73.2155 75.5293 73.8822 77.5293 73.6861C77.9215 73.6077 78.196 74.0783 77.9215 74.3528Z" fill="black"/>
<path d="M66.2743 60.9412C65.3331 60.902 64.6272 60.1177 64.7057 59.1765L64.7449 58.0785C64.7841 57.1373 65.5684 56.4314 66.5096 56.5099C67.4508 56.5491 68.1566 57.3334 68.0782 58.2746L68.039 59.3726C67.9998 60.2746 67.2155 60.9804 66.2743 60.9412Z" fill="black"/>
<path d="M82.7838 61.5296C81.9211 61.4904 81.2544 60.7453 81.2936 59.8825L81.3328 58.8629C81.3721 58.0002 82.1172 57.3335 82.9799 57.3727C83.8427 57.412 84.5093 58.1571 84.4701 59.0198L84.4309 60.0394C84.3917 60.9021 83.6466 61.5688 82.7838 61.5296Z" fill="black"/>
<path d="M69.8037 58.8237C68.5096 57.9609 67.0978 57.3727 65.5292 57.6864C65.0194 57.7648 64.5096 57.9217 64.1959 58.2747C64.0782 58.4315 63.8037 58.3923 63.8037 58.157C63.8429 57.3727 64.5096 56.8629 65.137 56.5492C66.3527 55.9217 68.039 56.0394 69.137 56.8629C69.5292 57.0982 70.8625 58.5492 70.1567 58.8629C69.9998 58.9413 69.9214 58.9021 69.8037 58.8237Z" fill="black"/>
<path d="M81.0195 59.0194C81.0195 57.3724 83.0588 56.7841 84.3137 57.3724C85.0195 57.6861 85.5293 58.3135 85.7254 59.0586C85.8038 59.2939 85.4509 59.49 85.294 59.2939C84.6274 58.5096 83.4901 58.1175 82.5882 58.588C82.3136 58.7449 82.2744 58.8626 82.196 59.0194C82.196 59.8037 81.0587 59.7645 81.0195 59.0194Z" fill="black"/>
<path d="M71.6861 52.3529C72.5096 52.6274 73.3332 51.8823 73.1763 50.9804C73.0979 50.5098 72.9018 50.0392 72.5096 49.6863C71.3332 48.6274 66.4704 47.6863 63.5293 49.0588C60.941 50.3137 67.9214 51.098 71.6861 52.3529Z" fill="black"/>
<path d="M83.4119 52.9805C82.7452 53.2158 82.0393 52.5099 82.157 51.6864C82.1962 51.255 82.3531 50.8237 82.6668 50.5099C83.608 49.5688 86.8236 48.8237 88.8629 50.2746C90.6276 51.4903 86.4707 51.8433 83.4119 52.9805Z" fill="black"/>
<path d="M93.098 39.7254C95.7646 37.4116 99.6862 33.9214 95.647 29.0587C91.6078 24.1959 84.1568 26.0783 84.1568 26.0783C84.1568 26.0783 85.7254 21.6077 81.3725 19.9999C76.1176 18.0783 61.2156 23.8822 61.2156 23.8822C60.1176 23.843 59.0588 23.8038 58.0784 23.8038C45.2156 23.5293 41.4901 31.6469 41.3333 38.941C41.3333 38.941 36.9803 40.392 35.8823 47.3332C35.5294 49.5685 35.1764 52.4312 36.0392 55.8822C38.3529 65.294 44.5882 71.843 48.549 75.1763C50.0392 74.0783 47.4117 72.5489 47.6078 70.745C39.098 66.5881 40.9411 56.5097 45.4901 55.9214C48.9803 55.4901 50.8235 57.5293 51.6862 59.1763C52.0392 59.6469 47.3333 33.4116 74.4705 41.9999C79.8431 43.6861 85.3725 45.1763 89.1372 42.4704C89.5686 43.294 89.8431 44.2744 89.9215 45.7254C89.9215 45.7254 96.4705 43.1763 95.4901 40.5097C95.1764 39.6077 93.098 39.7254 93.098 39.7254Z" fill="black"/>
</g>
</svg>
